PathFileType	4	(X/Y/Z)	Patient4_TMGait_0pt6_02_right_11.trc.trc
DataRate	CameraRate	NumFrames	NumMarkers	Units	OrigDataRate	OrigDataStartFrame	OrigNumFrames
82.840236686391	82.840236686391	7	33	mm	82.840236686391	106	       141
Frame#	Time	Sacral			L.Shoulder			Chest			R.Shoulder			Neck			R.ASIS			L.ASIS			R.Thigh.Superior			R.Thigh.Lateral			R.Thigh.Inferior			R.Patella			L.Thigh.Superior			L.Thigh.Lateral			L.Thigh.Inferior			L.Patella			L.Shank.Superior			L.Shank.Lateral			L.Shank.Inferior			R.Shank.Superior			R.Shank.Lateral			R.Shank.Inferior			R.Heel			R.Midfoot.Superior			R.Midfoot.Lateral			R.Toe			L.Heel			L.Midfoot.Lateral			L.Midfoot.Superior			L.Toe			L.Elbow			L.Wrist			R.Elbow			R.Wrist			
		X1	Y1	Z1	X2	Y2	Z2	X3	Y3	Z3	X4	Y4	Z4	X5	Y5	Z5	X6	Y6	Z6	X7	Y7	Z7	X8	Y8	Z8	X9	Y9	Z9	X10	Y10	Z10	X11	Y11	Z11	X12	Y12	Z12	X13	Y13	Z13	X14	Y14	Z14	X15	Y15	Z15	X16	Y16	Z16	X17	Y17	Z17	X18	Y18	Z18	X19	Y19	Z19	X20	Y20	Z20	X21	Y21	Z21	X22	Y22	Z22	X23	Y23	Z23	X24	Y24	Z24	X25	Y25	Z25	X26	Y26	Z26	X27	Y27	Z27	X28	Y28	Z28	X29	Y29	Z29	X30	Y30	Z30	X31	Y31	Z31	X32	Y32	Z32	X33	Y33	Z33	

106	14.197500000000	690.682039507098	1011.163753395020	429.406009068642	881.963178757882	1438.506232440947	255.173596565979	979.521279386263	1365.585509755221	417.470672482969	892.673908693700	1441.397818081891	588.227243443523	875.772235480969	1497.681172706681	406.939393481888	912.281190520035	944.898664445051	554.792602709177	912.778556132384	965.765212532194	281.208990621190	1008.100077442808	788.664613992285	522.929252471907	979.705568988370	665.944004362562	593.202347516362	1073.337708965368	636.766203990840	513.194232539327	1103.139087315431	523.114533361456	533.003276588411	956.364518532092	751.778873696440	313.516578763868	866.620613011438	639.546784876015	248.564853722360	940.942252711579	558.196038453828	318.888701781220	937.235304484934	488.673870145186	328.549739661288	909.903746388126	417.538677157062	316.286397709537	820.876735876875	305.119690820604	261.624348251791	867.201709295194	193.296345082462	334.327328225237	1028.506350501148	444.052462070719	537.240962452994	906.692716072712	399.531938923621	592.688206785903	896.864264687100	291.409795315871	542.035516608966	700.255757161634	234.796116021496	508.309992613453	864.244856478329	164.468159554306	551.387749207061	753.259982012770	167.654659769045	579.265602170215	918.392686313262	44.386707348263	570.325776326206	736.095839942258	37.590636871901	372.678102530658	808.960615963068	34.670075410045	290.752718667976	891.642925090172	96.557374929793	317.097642830410	1020.314077824573	45.985411677012	285.971686699838	803.992369167961	1101.078267251509	121.690788200216	959.695363928143	891.027716008438	111.366981624969	834.171560378149	1096.525163433951	705.201597350627	893.222423013646	842.210546281052	721.448843917702	
107	14.209571428571	690.504548421817	1011.806484852184	428.490432360222	884.499335918153	1439.293195107771	256.038778598360	980.368833649291	1365.741274113230	419.004132613453	892.250802046824	1441.528323832818	589.083254548111	877.026444316670	1498.148886910328	407.858833248888	911.431381871256	945.868325842017	555.359972290824	913.481175713410	966.186994127745	281.624942776267	1009.033345151404	792.504215604580	522.902752945798	982.685802379661	669.272849231497	593.649297683469	1076.498968059344	641.297265945669	513.653043058964	1108.498406872220	528.931497698078	534.021188866827	954.254211956601	750.773669090082	314.585686574373	863.449287857762	639.640034237897	248.456162663725	936.076982467377	557.333107040368	319.295606293317	931.438028468464	487.941459359412	328.780838146168	904.017840414046	417.176002308688	316.379881730442	814.614677485760	305.131981781770	261.578666232793	860.349140586354	193.121584291481	334.365522333622	1037.223862852381	447.591126911079	538.309839682132	917.659452726344	397.329516158561	593.511844223839	913.295738534716	288.768154374922	543.078187510934	719.475675118563	220.710269233441	508.859234654567	887.592488562878	161.623536430097	553.124647952964	776.505426659941	157.991934886835	580.716467185975	949.293307182474	45.887470565295	573.398914436096	728.769885054757	37.591749202681	372.664644514213	801.648149582366	34.674199409541	290.736179292376	884.371557518210	96.510563549070	317.098528783522	1013.033722982939	45.859162305656	285.935937443092	806.506789971748	1102.451807450407	121.427490207055	964.874610743755	894.486895601445	112.877311619555	830.345890645732	1097.558710271630	706.177632045093	882.202915188479	842.120371551725	726.451825986894	
108	14.221642857143	690.439572672940	1012.335089673710	427.772803610811	887.015812992944	1439.907372328578	256.987495245300	981.276153769357	1365.758717796731	420.569690712461	891.991653429238	1441.564589698170	589.996634647525	878.317654844989	1498.483888181819	408.833620587406	910.765384742929	946.664818959307	555.978313789034	914.299149972657	966.537404478015	282.059510855958	1009.719573778717	795.668534169272	523.165858706475	984.785061469549	671.887453868149	594.263621612921	1078.836159249099	644.876716804617	514.499242217823	1112.670185058763	534.049147370312	535.328350448588	952.190551878052	749.734645845680	315.758558648943	860.399773791803	639.682519902684	248.387384803103	931.315180885286	556.451588159876	319.737691598099	925.759645636420	487.196889427192	329.012488026406	898.242451039930	416.774780214458	316.501505467704	808.435709803790	305.134588597076	261.560041550482	853.540119676015	192.922983160474	334.419978139589	1045.160873068145	450.520385711314	539.615499421968	928.517054884572	394.113256635407	594.733151289139	930.089929685239	285.409941613697	544.460638419982	740.144031633556	205.291366451350	509.919763181906	911.815488816427	158.224178462453	555.115762000212	801.167834855618	147.472406085733	582.626303046612	981.211206090385	47.560239833058	576.726076044834	721.470802947263	37.617007282815	372.647712373971	794.344480498386	34.692252624073	290.726229013942	877.120877937152	96.458710226717	317.115155807786	1005.762611246653	45.705810536183	285.907663527852	809.107559588633	1103.566816852176	121.384356805801	969.843425905653	897.513992867321	114.765135296949	826.564467515456	1098.658645435158	707.477442779759	872.073500978586	842.505975628895	731.110300324909	
109	14.233714285714	690.497129866625	1012.733274566043	427.248531034128	889.471096798552	1440.344703582312	258.026413354370	982.234451996260	1365.628776162672	422.158875731444	891.907025168750	1441.479381413815	590.985185313100	879.637799998248	1498.673282652303	409.880142753298	910.304861805245	947.271082761352	556.644383000776	915.253065157748	966.796668825554	282.505005994743	1010.160755113093	798.037663360695	523.720039337185	985.948666910918	673.683055946033	595.030777898544	1080.277900198538	647.379568769063	515.680650846150	1115.593071085914	538.344246773075	536.815723249265	950.225584100885	748.659696160269	316.963885542576	857.489096212334	639.662037592886	248.371224292809	926.715709165053	555.547386619930	320.193715280240	920.261990054276	486.434015240475	329.245728262136	892.630223795271	416.325157426869	316.654981703739	802.375957783588	305.127984916918	261.575543247589	846.793805928926	192.694487180881	334.496634706092	1052.210801815735	452.794710521093	541.094737689251	939.259382989700	389.964356161827	596.392441287570	947.118440836264	281.496170048439	546.188091927131	762.242843544726	188.920926328111	511.628788808122	936.727540868871	154.511540128532	557.377128439983	827.146785420645	136.418792453580	585.051499347880	1013.770732823326	49.630960171230	580.191747676569	714.200912696763	37.674065830352	372.626557904127	787.051524533327	34.729866101563	290.723407536921	869.893840647591	96.403731025704	317.150476213246	998.498954675107	45.523250500595	285.886881037807	811.782455719787	1104.408175578705	121.564681504882	974.585202468358	900.084102476103	117.009473940583	822.846112039020	1099.773140604475	709.063078756477	862.833212557337	843.199031824238	735.464759052792	
110	14.245785714286	690.693296353126	1012.984921027311	426.915069598508	891.825521018712	1440.605851455239	259.160146550781	983.233601394382	1365.351461463370	423.765223658310	891.999333217266	1441.255363205109	592.064364644645	880.975734517650	1498.709522798644	411.012729042121	910.071707288829	947.677251057930	557.364074529180	916.352850003681	966.944083791258	282.967965690636	1010.354303777827	799.506095209446	524.557365172006	986.147949992301	674.587462949253	595.941742684487	1080.758929929750	648.713662349450	517.124549589334	1117.225834066307	541.722789966375	538.365307731212	948.402693026735	747.545231353254	318.146197436261	854.728530347558	639.568775105046	248.424210378647	922.327993859426	554.616133096135	320.649698523338	914.995632958641	485.644833616207	329.486715661610	887.222564863438	415.818952969524	316.846026057884	796.462265014152	305.112739995584	261.634185803085	840.123137231684	192.431243886127	334.601789957949	1058.278201780567	454.387931826866	542.682291814800	949.844761064373	384.998744755958	598.494758771494	964.214484646413	277.199269115459	548.238267362631	785.655551631956	171.993214225197	514.042509234888	962.093415392176	150.726131786183	559.904449967047	854.252594249419	125.156357140578	587.990789280100	1046.571709731831	52.305465429983	583.694095604159	706.959045025433	37.766788889936	372.602832274962	779.770226013979	34.790525859852	290.728669420278	862.691155244588	96.347327775092	317.206587671706	991.239957287545	45.310950240234	285.873327512484	814.507809817573	1104.968194804310	121.976668000351	979.084353986678	902.189267717098	119.587350563317	819.228449045958	1100.850290918178	710.877511693394	854.471124724489	844.048948327367	739.547071001008	
111	14.257857142857	691.050398694261	1013.071883680152	426.774626092975	894.043264343110	1440.693816473041	260.390896783570	984.262793717272	1364.933975999783	425.384564528779	892.262758155827	1440.883788579773	593.245182650407	882.316644123483	1498.588968577710	412.242581713141	910.088769199355	947.877970317740	558.149896098941	917.594787432243	966.957506066212	283.467648313254	1010.297569738994	799.990303791187	525.664221218986	985.389590235479	674.567036416442	596.997886246135	1080.234428357263	648.829631287996	518.748985065088	1117.555315073961	544.125626198580	539.868227902646	946.756205258888	746.384952308134	319.269797103095	852.126241507502	639.394789795188	248.563337600965	918.190846316769	553.652110601094	321.098777273335	909.999309493536	484.818661837696	329.744348393946	882.048596447852	415.248268580762	317.080958941577	790.711594936991	305.088237661302	261.745243758547	833.534492412015	192.128447232622	334.740931245908	1063.286827172793	455.292512225784	544.322067158989	960.183953232243	379.362815062348	601.004346475872	981.166729963881	272.692096234114	550.562126533432	810.144952008514	154.911730096694	517.122311418332	987.611672173622	147.084634385451	562.664421349896	882.181016368635	113.999663050098	591.376246746106	1079.169088613745	55.728192754745	587.142041875271	699.741116861057	37.892826393303	372.580355721431	772.500646399581	34.874000320321	290.743078505529	855.510993769615	96.290313694778	317.284551501967	983.982741133833	45.070345860830	285.866449825066	817.249602726824	1105.245058228346	122.631417836146	983.326743151414	903.836110164650	122.473935032352	815.764562461864	1101.839011825014	712.852190839221	846.974952546303	844.927703488063	743.378049626971	
112	14.269928571429	691.595930800347	1012.972642072165	426.835511188911	896.093633305711	1440.611398106519	261.718720540305	985.311013261939	1364.388071286139	427.015338057095	892.683931266503	1440.362253652346	594.533630040713	883.641748029478	1498.309862207027	413.577106046436	910.379971120735	947.869698036576	559.018474647545	918.962340076473	966.814145017810	284.032743179123	1009.993820406830	799.437996265387	527.024638461169	983.723967596719	673.630459346797	598.211279383665	1078.695903069716	647.729979693931	520.473234322852	1116.604858548491	545.531923473503	541.240316736944	945.313882315395	745.168623162588	320.319481255341	849.690963300023	639.132917276770	248.803800528005	914.333685364840	552.647051371580	321.541207746694	905.301683313399	483.940740277531	330.029020538805	877.126205727094	414.603590684542	317.366303306055	785.131939720504	305.051467946028	261.917061708766	827.028255472084	191.779775688805	334.918041907193	1067.187470245860	455.517461140873	545.974474528465	970.134215675318	373.223759668523	603.842382588225	997.716886332263	268.134857737331	553.085871652561	835.336990405687	138.082525426989	520.732715416243	1012.903538990211	143.756474601703	565.589295041916	910.495772694566	103.236290067273	595.072524766327	1111.058237773859	59.942876119379	590.449752484845	692.541106318836	38.041702570714	372.564110354534	765.242028512367	34.974824992906	290.767541714438	848.348897821467	96.231951600751	317.384313834590	976.725292881625	44.804977518124	285.865397978879	819.965776852676	1105.240785555173	123.540714169009	987.299928821839	905.042061498859	125.642370554816	812.519108015713	1102.689625326955	714.916373875908	840.338088680706	845.730744448238	746.967745153532	
